<?xml version="1.0" encoding="utf-8"?>
<!DOCTYPE svg PUBLIC "-//W3C//DTD SVG 1.1//EN" "http://www.w3.org/Graphics/SVG/1.1/DTD/svg11.dtd">
<svg xmlns="http://www.w3.org/2000/svg" xmlns:xlink="http://www.w3.org/1999/xlink" version="1.1" baseProfile="full" width="42.0933" height="48.1215" viewBox="0 0 42.09 48.12" enable-background="new 0 0 42.09 48.12" xml:space="preserve">
	<g>
		<path fill="#000000" fill-opacity="1" stroke-linejoin="round" d="M 26.4,23.04L 25.7025,33.12L 0,33.12L 0,31.68C 0.36499,31.65 0.892487,31.595 1.58249,31.5151C 2.27249,31.435 2.7525,31.3325 3.02249,31.2075C 3.47749,31.0025 3.8075,30.7026 4.0125,30.3075C 4.2175,29.9125 4.31999,29.4075 4.31999,28.7925L 4.31999,4.73252C 4.31999,4.19755 4.2325,3.72379 4.0575,3.31126C 3.88249,2.89878 3.53751,2.56754 3.02249,2.31754C 2.6725,2.12748 2.18375,1.94126 1.55624,1.75877C 0.928741,1.57627 0.410004,1.47001 0,1.43998L 0,4.00543e-005L 13.44,4.00543e-005L 13.44,1.43998C 13.03,1.455 12.4975,1.53251 11.8425,1.67253C 11.1875,1.81254 10.7125,1.93754 10.4175,2.04753C 9.9175,2.23753 9.57625,2.55876 9.39374,3.01127C 9.21124,3.46379 9.12,3.94755 9.12,4.4625L 9.12,26.7975C 9.12,27.8276 9.17,28.6275 9.26999,29.1975C 9.37,29.7675 9.605,30.2075 9.97501,30.5175C 10.33,30.8025 10.8575,30.9875 11.5575,31.0725C 12.2575,31.1575 13.24,31.2 14.505,31.2C 15.075,31.2 15.6675,31.1838 16.2825,31.1513C 16.8975,31.1188 17.4825,31.055 18.0375,30.96C 18.5775,30.865 19.0738,30.735 19.5262,30.57C 19.9787,30.405 20.3125,30.195 20.5275,29.94C 21.1625,29.215 21.8987,28.1125 22.7363,26.6325C 23.5738,25.1525 24.155,23.955 24.48,23.04L 26.4,23.04 Z "/>
	</g>
	<g>
		<path fill="#000000" fill-opacity="1" stroke-linejoin="round" d="M 42.0932,48.1216L 17.4007,48.1216L 17.4007,46.5094L 34.4276,21.099L 30.2851,21.099C 28.5455,21.099 27.185,21.1294 26.2035,21.1902C 25.2221,21.251 24.3218,21.4541 23.5028,21.7996C 22.941,22.0235 22.4147,22.6632 21.924,23.7188C 21.4332,24.7743 21.0085,26.153 20.6497,27.8547L 18.7003,27.8547L 18.7003,18.6425L 42.0932,18.6425L 42.0932,19.8899L 24.8125,45.665C 25.53,45.6841 26.3169,45.6985 27.1732,45.7082C 28.0294,45.7178 28.955,45.7226 29.9501,45.7226C 30.7488,45.7226 31.5813,45.7129 32.4477,45.6938C 33.3141,45.6746 34.4242,45.6266 35.778,45.5498C 36.5767,45.505 37.1808,45.2331 37.5903,44.7342C 37.9998,44.2351 38.3129,43.669 38.5295,43.0357C 38.7461,42.4535 39.0101,41.6554 39.3214,40.6414C 39.6328,39.6275 39.9069,38.6407 40.1438,37.6811L 42.0932,37.6811L 42.0932,48.1216 Z "/>
	</g>
</svg>
